<svg xmlns="http://www.w3.org/2000/svg" viewBox="0 0 488.83 487.79"><title>drunkemon-pattern</title><g id="b656859f-a615-42bb-a3e6-63c7d563333e" data-name="圖層 2"><g id="29132fe6-44de-4349-81ec-aee91bd80bc8" data-name="圖層 1"><path d="M33.59,16.93a8.35,8.35,0,0,1-3.36-1.87C27.3,12.75,24.49,10.31,21.6,8c-1.34-1.08-3-1.85-4.06-3.19a7.1,7.1,0,0,0-2.91-2.21c-.24-.11-.46-.26-.72-.4L14.67,1c-1.75-1.41-1.77-1.41-3.42.23L7.82,4.69c-1.69,1.69-1.69,1.7-.38,3.54l1.21-.78c.37.78.66,1.47,1,2.13a4.5,4.5,0,0,0,.77,1,23.32,23.32,0,0,1,2.09,2c2.57,3.28,4.84,6.83,7.68,9.85A13.14,13.14,0,0,1,24,29.23a15.58,15.58,0,0,0,4.61,8.31Q40,49,51.43,60.39l.35.32c1,.85,1.62.79,2.7-.29q6-6,11.92-11.92c1.72-1.71,1.75-2.14.29-3.72-.26-.29-.54-.57-.82-.84-6.58-6.58-13.23-13.1-19.72-19.77C42.68,20.6,38.75,17.91,33.59,16.93ZM49.86,43.2a7.78,7.78,0,0,1-10.57.43l2.91-2.91a3.7,3.7,0,0,0,5.16-5.15l2.93-2.94A7.78,7.78,0,0,1,49.86,43.2Zm-7.27-3.73a2.52,2.52,0,1,1,3.56,0A2.52,2.52,0,0,1,42.59,39.47Zm3.91-4.76a3.7,3.7,0,0,0-5.16,5.15l-2.91,2.91a7.77,7.77,0,0,1,11-11Z" style="fill:#e6e6e6"/><path d="M146.28,6.47a.05.05,0,0,1,0-.09l0,0a.44.44,0,0,0,0-.62.54.54,0,0,0-.76,0l-7.59,7.59-7.6,7.6a.54.54,0,0,0,0,.76.44.44,0,0,0,.62,0l0,0a.05.05,0,0,1,.09,0l1.25,4.74L160.85,55l4.19.74,7.62-7.63,7.63-7.63-.73-4.18L151,7.72ZM164.9,40.32a10,10,0,0,1-13.59.55l3.74-3.74a4.75,4.75,0,0,0,6.63-6.63l3.78-3.77A10,10,0,0,1,164.9,40.32Zm-9.34-4.8a3.23,3.23,0,1,1,4.58,0A3.24,3.24,0,0,1,155.56,35.52Zm5-6.13A4.76,4.76,0,0,0,154,36l-3.75,3.74a10,10,0,1,1,14.15-14.15Z" style="fill:#e6e6e6"/><path d="M389.28,6.47a.05.05,0,0,1,0-.09l0,0a.44.44,0,0,0,0-.62.54.54,0,0,0-.76,0l-7.59,7.59-7.6,7.6a.54.54,0,0,0,0,.76.44.44,0,0,0,.62,0l0,0a.05.05,0,0,1,.09,0l1.25,4.74L403.85,55l4.19.74,7.62-7.63,7.63-7.63-.73-4.18L394,7.72ZM407.9,40.32a10,10,0,0,1-13.59.55l3.74-3.74a4.75,4.75,0,0,0,6.63-6.63l3.78-3.77A10,10,0,0,1,407.9,40.32Zm-9.34-4.8a3.23,3.23,0,1,1,4.58,0A3.24,3.24,0,0,1,398.56,35.52Zm5-6.13A4.76,4.76,0,0,0,397,36l-3.75,3.74a10,10,0,1,1,14.15-14.15Z" style="fill:#e6e6e6"/><path d="M277.23,27.18l-1.13-1.13a4.23,4.23,0,0,0-.61.51,6.33,6.33,0,0,0-.49.56l1.14,1.14a3.33,3.33,0,0,1,.48-.6A3.07,3.07,0,0,1,277.23,27.18Z" style="fill:#e6e6e6"/><path d="M281.48,32.52a3.33,3.33,0,0,1-.6.48L282,34.15a5.36,5.36,0,0,0,1.08-1.1L282,31.91A3.07,3.07,0,0,1,281.48,32.52Z" style="fill:#e6e6e6"/><path d="M287.08,37l3.47,3.46c1.81-1.81,3.56-3.52,5.24-5.3a1.16,1.16,0,0,0-.06-1.11c-1.48-2-2.94-4.12-4.57-6q-1.4-1.65-2.88-3.2A10.61,10.61,0,0,1,287.08,37Z" style="fill:#e6e6e6"/><path d="M276.1,26.05l1.13,1.13A3.43,3.43,0,0,1,282,31.91l1.15,1.14a5,5,0,0,0,0-5.86l3.77-3.77c-.39-.39-.78-.78-1.19-1.16L282,26A5,5,0,0,0,276.1,26.05Z" style="fill:#e6e6e6"/><path d="M283.25,20.06a70.54,70.54,0,0,0-7.7-5.77,1,1,0,0,0-1.49.2c-.77.85-1.62,1.64-2.44,2.45l-2.31,2.32,2.22,2.22A10.6,10.6,0,0,1,283.25,20.06Z" style="fill:#e6e6e6"/><path d="M281.93,34.22l.1-.07L280.88,33a3.44,3.44,0,0,1-4.74-4.74L275,27.12a5,5,0,0,0-.08,5.93l-3.53,3.53c.38.4.76.8,1.15,1.19l3.55-3.55A5,5,0,0,0,281.93,34.22Z" style="fill:#e6e6e6"/><path d="M270.44,22.56l-2.19-2.18-5.38,5.38c.2.34.37.67.58,1,1.4,1.88,2.73,3.81,4.21,5.63l.93,1.11A10.62,10.62,0,0,1,270.44,22.56Z" style="fill:#e6e6e6"/><path d="M274.61,39.78a74,74,0,0,0,8.64,7,1.08,1.08,0,0,0,1,0c1.74-1.66,3.43-3.39,5.2-5.16L286,38.12A10.62,10.62,0,0,1,274.61,39.78Z" style="fill:#e6e6e6"/><path d="M282.82,48.24a68.3,68.3,0,0,1-20.94-21.55c-1.25,1.25-2.37,2.44-3.57,3.54a1.18,1.18,0,0,0-.25,1.63,41.25,41.25,0,0,0,6.22,9.74A40.14,40.14,0,0,0,278.05,52a1.12,1.12,0,0,0,1,0C280.3,50.8,281.51,49.55,282.82,48.24Z" style="fill:#e6e6e6"/><path d="M280.83,9.15c-.38-.17-1.05-.28-1.27-.07-1.3,1.16-2.5,2.43-3.84,3.78a62.34,62.34,0,0,1,21.52,21c1.23-1.23,2.28-2.33,3.39-3.36a1.12,1.12,0,0,0,.26-1.54,41.85,41.85,0,0,0-7.34-10.71A40.71,40.71,0,0,0,280.83,9.15Z" style="fill:#e6e6e6"/><path d="M292.26,42.41l3.26,3.25c1.37-1.37,2.73-2.72,4.08-4.1a.71.71,0,0,0,.2-.57c-.69-1.32-1.41-2.62-2.15-4Z" style="fill:#e6e6e6"/><path d="M289.72,50.74a.84.84,0,0,0,.77-.09c1.38-1.33,2.73-2.69,4.09-4l-3.27-3.27-5.3,5.3C287.29,49.37,288.49,50.08,289.72,50.74Z" style="fill:#e6e6e6"/><path d="M269.2,10.79a.85.85,0,0,0-.76.13c-1.31,1.26-2.58,2.55-3.86,3.83l2.92,2.91,5.14-5.13C271.43,11.91,270.33,11.32,269.2,10.79Z" style="fill:#e6e6e6"/><path d="M266.21,19a.85.85,0,0,0,0-.82c-.77-.84-1.6-1.63-2.48-2.51l-4.21,4.21c.67,1.25,1.33,2.47,2.06,3.81C263.2,22.05,264.73,20.54,266.21,19Z" style="fill:#e6e6e6"/><path d="M284.78,49.82c-1.17,1.1-2.29,2.25-3.6,3.56,1.71.5,3.16.95,4.63,1.32a1.07,1.07,0,0,0,.87-.24c.9-.82,1.74-1.71,2.7-2.67-1.39-.73-2.6-1.38-3.82-2A.85.85,0,0,0,284.78,49.82Z" style="fill:#e6e6e6"/><path d="M298.92,35.62a.92.92,0,0,0-.12.85c.58,1.28,1.23,2.53,1.94,4,1-1,1.86-1.83,2.69-2.72a1,1,0,0,0,.24-.77c-.41-1.53-.87-3-1.37-4.74C301.05,33.46,300,34.51,298.92,35.62Z" style="fill:#e6e6e6"/><path d="M258.5,26.75c.7-.71,1.82-1.36,2-2.18s-.7-1.79-1.12-2.69c-.17-.37-.36-.73-.62-1.27-1.05,1.05-2,2-2.93,2.95-.16.16-.35.46-.3.64.34,1.39.74,2.77,1.19,4.37C257.42,27.84,258,27.3,258.5,26.75Z" style="fill:#e6e6e6"/><path d="M273.88,11.27c1.15-1.08,2.26-2.22,3.57-3.54-1.51-.43-2.75-.8-4-1.13a1,1,0,0,0-.8.12c-1,1-2,2-3.11,3.07,1.26.59,2.36,1.13,3.48,1.6A1,1,0,0,0,273.88,11.27Z" style="fill:#e6e6e6"/><path d="M454.67,80.43a8.48,8.48,0,0,1-3.36-1.87c-2.92-2.31-5.74-4.75-8.63-7.1-1.34-1.08-3-1.85-4.05-3.19a7.19,7.19,0,0,0-2.92-2.21c-.24-.11-.46-.26-.72-.4l.77-1.13c-1.75-1.41-1.78-1.41-3.42.23l-3.44,3.43c-1.69,1.69-1.69,1.7-.38,3.54l1.21-.78c.37.78.67,1.47,1,2.13a4.54,4.54,0,0,0,.78,1,24.75,24.75,0,0,1,2.09,2c2.56,3.28,4.83,6.83,7.67,9.85a13.14,13.14,0,0,1,3.81,6.79,15.64,15.64,0,0,0,4.61,8.31q11.4,11.44,22.81,22.85c.11.11.22.22.34.32,1.05.85,1.62.79,2.71-.29L487.48,112c1.72-1.71,1.76-2.14.3-3.72-.27-.29-.55-.57-.83-.84-6.58-6.58-13.22-13.1-19.72-19.77C463.76,84.1,459.84,81.41,454.67,80.43Zm16.27,26.27a7.76,7.76,0,0,1-10.56.43l2.91-2.91a3.69,3.69,0,0,0,5.15-5.15l2.93-2.94A7.77,7.77,0,0,1,470.94,106.7ZM463.68,103a2.51,2.51,0,1,1,3.56,0A2.51,2.51,0,0,1,463.68,103Zm3.9-4.76a3.7,3.7,0,0,0-5.15,5.15l-2.91,2.91a7.77,7.77,0,0,1,11-11Z" style="fill:#e6e6e6"/><path d="M89.36,70a.06.06,0,0,1,0-.09l0,0a.44.44,0,0,0,0-.62.54.54,0,0,0-.76,0L81,76.83l-7.59,7.6a.54.54,0,0,0,0,.76.43.43,0,0,0,.61,0l0,0a.05.05,0,0,1,.09,0l1.26,4.74,28.55,28.54,4.18.74,7.63-7.63,7.63-7.63-.74-4.18L94.09,71.22ZM108,103.82a10,10,0,0,1-13.6.55l3.75-3.74A4.76,4.76,0,0,0,104.77,94l3.77-3.77A10,10,0,0,1,108,103.82ZM98.64,99a3.23,3.23,0,1,1,4.58,0A3.23,3.23,0,0,1,98.64,99Zm5-6.13A4.76,4.76,0,0,0,97,99.53l-3.74,3.74a10,10,0,0,1,14.15-14.15Z" style="fill:#e6e6e6"/><path d="M332.36,70a.06.06,0,0,1,0-.09l0,0a.44.44,0,0,0,0-.62.54.54,0,0,0-.76,0L324,76.83l-7.59,7.6a.54.54,0,0,0,0,.76.43.43,0,0,0,.61,0l0,0a.05.05,0,0,1,.09,0l1.26,4.74,28.55,28.54,4.18.74,7.63-7.63,7.63-7.63-.74-4.18L337.09,71.22ZM351,103.82a10,10,0,0,1-13.6.55l3.75-3.74A4.76,4.76,0,0,0,347.77,94l3.77-3.77A10,10,0,0,1,351,103.82ZM341.64,99a3.23,3.23,0,1,1,4.58,0A3.23,3.23,0,0,1,341.64,99Zm5-6.13A4.76,4.76,0,0,0,340,99.53l-3.74,3.74a10,10,0,1,1,14.15-14.15Z" style="fill:#e6e6e6"/><path d="M220.31,90.68l-1.13-1.13a4.85,4.85,0,0,0-.61.51,6.33,6.33,0,0,0-.49.56l1.14,1.14a4.51,4.51,0,0,1,.48-.6A3.38,3.38,0,0,1,220.31,90.68Z" style="fill:#e6e6e6"/><path d="M224.56,96a2.75,2.75,0,0,1-.6.48l1.15,1.15a4.89,4.89,0,0,0,1.08-1.1l-1.14-1.14A3.54,3.54,0,0,1,224.56,96Z" style="fill:#e6e6e6"/><path d="M230.16,100.53l3.47,3.46c1.81-1.81,3.56-3.52,5.25-5.3a1.19,1.19,0,0,0-.06-1.11c-1.49-2-2.95-4.12-4.58-6q-1.4-1.65-2.88-3.2A10.61,10.61,0,0,1,230.16,100.53Z" style="fill:#e6e6e6"/><path d="M219.18,89.55l1.13,1.13a3.44,3.44,0,0,1,4.74,4.73l1.14,1.14a5,5,0,0,0,0-5.86L230,86.92l-1.19-1.16L225,89.52A5,5,0,0,0,219.18,89.55Z" style="fill:#e6e6e6"/><path d="M226.33,83.56a71.4,71.4,0,0,0-7.69-5.77,1,1,0,0,0-1.5.2c-.77.85-1.62,1.64-2.43,2.45s-1.55,1.56-2.32,2.32L214.61,85A10.6,10.6,0,0,1,226.33,83.56Z" style="fill:#e6e6e6"/><path d="M225,97.72l.1-.07L224,96.5a3.44,3.44,0,0,1-4.74-4.74l-1.14-1.14a5,5,0,0,0-.08,5.93l-3.53,3.53,1.15,1.19,3.55-3.55A5,5,0,0,0,225,97.72Z" style="fill:#e6e6e6"/><path d="M213.52,86.06l-2.18-2.18L206,89.26a9.8,9.8,0,0,0,.59,1c1.39,1.88,2.73,3.81,4.21,5.63q.45.56.93,1.11A10.61,10.61,0,0,1,213.52,86.06Z" style="fill:#e6e6e6"/><path d="M217.69,103.28a74.84,74.84,0,0,0,8.64,7,1.08,1.08,0,0,0,1,0c1.75-1.66,3.44-3.39,5.21-5.16l-3.48-3.47A10.61,10.61,0,0,1,217.69,103.28Z" style="fill:#e6e6e6"/><path d="M225.91,111.74A68.22,68.22,0,0,1,205,90.19c-1.24,1.25-2.36,2.44-3.57,3.54a1.19,1.19,0,0,0-.25,1.63,41.57,41.57,0,0,0,6.22,9.74,40.14,40.14,0,0,0,13.77,10.39,1.12,1.12,0,0,0,1,0C223.38,114.3,224.59,113.05,225.91,111.74Z" style="fill:#e6e6e6"/><path d="M223.91,72.65c-.37-.17-1-.28-1.27-.07-1.29,1.16-2.5,2.43-3.84,3.78a62.37,62.37,0,0,1,21.53,21c1.22-1.23,2.27-2.33,3.38-3.36a1.11,1.11,0,0,0,.27-1.54,42.14,42.14,0,0,0-7.35-10.71A40.6,40.6,0,0,0,223.91,72.65Z" style="fill:#e6e6e6"/><path d="M235.35,105.91l3.25,3.25c1.37-1.37,2.74-2.72,4.08-4.1.13-.13.27-.44.2-.57-.68-1.32-1.41-2.62-2.15-4Z" style="fill:#e6e6e6"/><path d="M232.81,114.24a.84.84,0,0,0,.77-.09c1.38-1.33,2.72-2.69,4.08-4.05l-3.26-3.27-5.31,5.3C230.37,112.87,231.57,113.58,232.81,114.24Z" style="fill:#e6e6e6"/><path d="M212.28,74.29a.86.86,0,0,0-.76.13c-1.31,1.26-2.58,2.55-3.86,3.83l2.92,2.91L215.72,76C214.51,75.41,213.41,74.82,212.28,74.29Z" style="fill:#e6e6e6"/><path d="M209.3,82.5a.83.83,0,0,0,0-.82c-.77-.84-1.6-1.63-2.47-2.51l-4.22,4.21c.67,1.25,1.33,2.47,2.06,3.81C206.28,85.55,207.81,84,209.3,82.5Z" style="fill:#e6e6e6"/><path d="M227.86,113.32c-1.17,1.1-2.29,2.25-3.6,3.56,1.72.5,3.17,1,4.63,1.32a1.1,1.1,0,0,0,.88-.24c.89-.82,1.74-1.71,2.7-2.67-1.4-.73-2.6-1.38-3.83-2A.85.85,0,0,0,227.86,113.32Z" style="fill:#e6e6e6"/><path d="M242,99.12a1,1,0,0,0-.12.85c.58,1.28,1.23,2.53,1.94,4,1-1,1.86-1.83,2.69-2.72a1,1,0,0,0,.24-.77c-.4-1.53-.87-3-1.37-4.74C244.13,97,243,98,242,99.12Z" style="fill:#e6e6e6"/><path d="M201.58,90.25c.7-.71,1.82-1.36,2-2.18s-.71-1.79-1.13-2.69c-.17-.37-.35-.73-.62-1.27-1.05,1-2,2-2.93,3a.91.91,0,0,0-.3.64c.35,1.39.75,2.77,1.19,4.37C200.5,91.34,201.05,90.8,201.58,90.25Z" style="fill:#e6e6e6"/><path d="M217,74.77c1.16-1.08,2.26-2.22,3.58-3.54-1.51-.43-2.75-.8-4-1.13a1,1,0,0,0-.8.12c-1,1-2,2-3.11,3.07,1.27.59,2.36,1.13,3.48,1.6A1,1,0,0,0,217,74.77Z" style="fill:#e6e6e6"/><path d="M454.67,202.43a8.48,8.48,0,0,1-3.36-1.87c-2.92-2.31-5.74-4.75-8.63-7.1-1.34-1.08-3-1.85-4.05-3.19a7.19,7.19,0,0,0-2.92-2.21c-.24-.11-.46-.26-.72-.4l.77-1.13c-1.75-1.41-1.78-1.41-3.42.23l-3.44,3.43c-1.69,1.69-1.69,1.7-.38,3.54l1.21-.78c.37.78.67,1.47,1,2.13a4.54,4.54,0,0,0,.78,1,24.75,24.75,0,0,1,2.09,2c2.56,3.28,4.83,6.83,7.67,9.85a13.14,13.14,0,0,1,3.81,6.79,15.64,15.64,0,0,0,4.61,8.31q11.4,11.44,22.81,22.85c.11.11.22.22.34.32,1.05.85,1.62.79,2.71-.29L487.48,234c1.72-1.71,1.76-2.14.3-3.72-.27-.29-.55-.57-.83-.84-6.58-6.58-13.22-13.1-19.72-19.77C463.76,206.1,459.84,203.41,454.67,202.43Zm16.27,26.27a7.76,7.76,0,0,1-10.56.43l2.91-2.91a3.69,3.69,0,0,0,5.15-5.15l2.93-2.94A7.77,7.77,0,0,1,470.94,228.7ZM463.68,225a2.51,2.51,0,1,1,3.56,0A2.51,2.51,0,0,1,463.68,225Zm3.9-4.76a3.7,3.7,0,0,0-5.15,5.15l-2.91,2.91a7.77,7.77,0,0,1,11-11Z" style="fill:#e6e6e6"/><path d="M89.36,192a.06.06,0,0,1,0-.09l0,0a.44.44,0,0,0,0-.62.54.54,0,0,0-.76,0L81,198.83l-7.59,7.6a.54.54,0,0,0,0,.76.43.43,0,0,0,.61,0l0,0a.05.05,0,0,1,.09,0l1.26,4.74,28.55,28.54,4.18.74,7.63-7.63,7.63-7.63-.74-4.18L94.09,193.22ZM108,225.82a10,10,0,0,1-13.6.55l3.75-3.74a4.76,4.76,0,0,0,6.63-6.63l3.77-3.77A10,10,0,0,1,108,225.82ZM98.64,221a3.23,3.23,0,1,1,4.58,0A3.23,3.23,0,0,1,98.64,221Zm5-6.13A4.76,4.76,0,0,0,97,221.53l-3.74,3.74a10,10,0,1,1,14.15-14.15Z" style="fill:#e6e6e6"/><path d="M332.36,192a.06.06,0,0,1,0-.09l0,0a.44.44,0,0,0,0-.62.54.54,0,0,0-.76,0L324,198.83l-7.59,7.6a.54.54,0,0,0,0,.76.43.43,0,0,0,.61,0l0,0a.05.05,0,0,1,.09,0l1.26,4.74,28.55,28.54,4.18.74,7.63-7.63,7.63-7.63-.74-4.18-28.55-28.55ZM351,225.82a10,10,0,0,1-13.6.55l3.75-3.74a4.76,4.76,0,0,0,6.63-6.63l3.77-3.77A10,10,0,0,1,351,225.82Zm-9.35-4.8a3.23,3.23,0,1,1,4.58,0A3.23,3.23,0,0,1,341.64,221Zm5-6.13a4.76,4.76,0,0,0-6.63,6.64l-3.74,3.74a10,10,0,1,1,14.15-14.15Z" style="fill:#e6e6e6"/><path d="M220.31,212.68l-1.13-1.13a4.85,4.85,0,0,0-.61.51,6.33,6.33,0,0,0-.49.56l1.14,1.14a4.51,4.51,0,0,1,.48-.6A3.38,3.38,0,0,1,220.31,212.68Z" style="fill:#e6e6e6"/><path d="M224.56,218a2.75,2.75,0,0,1-.6.48l1.15,1.15a4.89,4.89,0,0,0,1.08-1.1l-1.14-1.14A3.54,3.54,0,0,1,224.56,218Z" style="fill:#e6e6e6"/><path d="M230.16,222.53l3.47,3.46c1.81-1.81,3.56-3.52,5.25-5.3a1.19,1.19,0,0,0-.06-1.11c-1.49-2-2.95-4.12-4.58-6.05q-1.4-1.65-2.88-3.2A10.61,10.61,0,0,1,230.16,222.53Z" style="fill:#e6e6e6"/><path d="M219.18,211.55l1.13,1.13a3.44,3.44,0,0,1,4.74,4.73l1.14,1.14a5,5,0,0,0,0-5.86l3.77-3.77-1.19-1.16L225,211.52A5,5,0,0,0,219.18,211.55Z" style="fill:#e6e6e6"/><path d="M226.33,205.56a71.4,71.4,0,0,0-7.69-5.77,1,1,0,0,0-1.5.2c-.77.85-1.62,1.64-2.43,2.45s-1.55,1.56-2.32,2.32l2.22,2.22A10.6,10.6,0,0,1,226.33,205.56Z" style="fill:#e6e6e6"/><path d="M225,219.72l.1-.07L224,218.5a3.44,3.44,0,0,1-4.74-4.74l-1.14-1.14a5,5,0,0,0-.08,5.93l-3.53,3.53,1.15,1.19,3.55-3.55A5,5,0,0,0,225,219.72Z" style="fill:#e6e6e6"/><path d="M213.52,208.06l-2.18-2.18L206,211.26a9.8,9.8,0,0,0,.59,1c1.39,1.88,2.73,3.81,4.21,5.63q.45.56.93,1.11A10.61,10.61,0,0,1,213.52,208.06Z" style="fill:#e6e6e6"/><path d="M217.69,225.28a74.84,74.84,0,0,0,8.64,7,1.08,1.08,0,0,0,1,0c1.75-1.66,3.44-3.39,5.21-5.16l-3.48-3.47A10.61,10.61,0,0,1,217.69,225.28Z" style="fill:#e6e6e6"/><path d="M225.91,233.74A68.22,68.22,0,0,1,205,212.19c-1.24,1.25-2.36,2.44-3.57,3.54a1.19,1.19,0,0,0-.25,1.63,41.57,41.57,0,0,0,6.22,9.74,40.14,40.14,0,0,0,13.77,10.39,1.12,1.12,0,0,0,1,0C223.38,236.3,224.59,235.05,225.91,233.74Z" style="fill:#e6e6e6"/><path d="M223.91,194.65c-.37-.17-1-.28-1.27-.07-1.29,1.16-2.5,2.43-3.84,3.78a62.37,62.37,0,0,1,21.53,21c1.22-1.23,2.27-2.33,3.38-3.36a1.11,1.11,0,0,0,.27-1.54,42.14,42.14,0,0,0-7.35-10.71A40.6,40.6,0,0,0,223.91,194.65Z" style="fill:#e6e6e6"/><path d="M235.35,227.91l3.25,3.25c1.37-1.37,2.74-2.72,4.08-4.1.13-.13.27-.44.2-.57-.68-1.32-1.41-2.62-2.15-4Z" style="fill:#e6e6e6"/><path d="M232.81,236.24a.84.84,0,0,0,.77-.09c1.38-1.33,2.72-2.69,4.08-4.05l-3.26-3.27-5.31,5.3C230.37,234.87,231.57,235.58,232.81,236.24Z" style="fill:#e6e6e6"/><path d="M212.28,196.29a.86.86,0,0,0-.76.13c-1.31,1.26-2.58,2.55-3.86,3.83l2.92,2.91,5.14-5.13C214.51,197.41,213.41,196.82,212.28,196.29Z" style="fill:#e6e6e6"/><path d="M209.3,204.5a.83.83,0,0,0,0-.82c-.77-.84-1.6-1.63-2.47-2.51l-4.22,4.21c.67,1.25,1.33,2.47,2.06,3.81C206.28,207.55,207.81,206,209.3,204.5Z" style="fill:#e6e6e6"/><path d="M227.86,235.32c-1.17,1.1-2.29,2.25-3.6,3.56,1.72.5,3.17,1,4.63,1.32a1.1,1.1,0,0,0,.88-.24c.89-.82,1.74-1.71,2.7-2.67-1.4-.73-2.6-1.38-3.83-2A.85.85,0,0,0,227.86,235.32Z" style="fill:#e6e6e6"/><path d="M242,221.12a1,1,0,0,0-.12.85c.58,1.28,1.23,2.53,1.94,4,1-1,1.86-1.83,2.69-2.72a1,1,0,0,0,.24-.77c-.4-1.53-.87-3-1.37-4.74C244.13,219,243,220,242,221.12Z" style="fill:#e6e6e6"/><path d="M201.58,212.25c.7-.71,1.82-1.36,2-2.18s-.71-1.79-1.13-2.69c-.17-.37-.35-.73-.62-1.27-1.05,1-2,2-2.93,2.95a.91.91,0,0,0-.3.64c.35,1.39.75,2.77,1.19,4.37C200.5,213.34,201.05,212.8,201.58,212.25Z" style="fill:#e6e6e6"/><path d="M217,196.77c1.16-1.08,2.26-2.22,3.58-3.54-1.51-.43-2.75-.8-4-1.13a1,1,0,0,0-.8.12c-1,1-2,2-3.11,3.07,1.27.59,2.36,1.13,3.48,1.6A1,1,0,0,0,217,196.77Z" style="fill:#e6e6e6"/><path d="M28.09,137.43a8.35,8.35,0,0,1-3.36-1.87c-2.93-2.31-5.74-4.75-8.63-7.1-1.34-1.08-3-1.85-4.06-3.19a7.1,7.1,0,0,0-2.91-2.21c-.24-.11-.46-.26-.72-.4l.76-1.13c-1.75-1.41-1.77-1.41-3.42.23l-3.43,3.43c-1.69,1.69-1.69,1.7-.38,3.54L3.15,128c.37.78.66,1.47,1,2.13a4.5,4.5,0,0,0,.77,1,23.32,23.32,0,0,1,2.09,2c2.57,3.28,4.84,6.83,7.68,9.85a13.14,13.14,0,0,1,3.81,6.79A15.58,15.58,0,0,0,23.13,158q11.39,11.44,22.8,22.85l.35.32c1,.85,1.62.79,2.7-.29L60.9,169c1.72-1.71,1.75-2.14.29-3.72-.26-.29-.54-.57-.82-.84-6.58-6.58-13.23-13.1-19.72-19.77C37.18,141.1,33.25,138.41,28.09,137.43ZM44.36,163.7a7.78,7.78,0,0,1-10.57.43l2.91-2.91a3.7,3.7,0,0,0,5.16-5.15l2.93-2.94A7.78,7.78,0,0,1,44.36,163.7ZM37.09,160a2.52,2.52,0,1,1,3.56,0A2.52,2.52,0,0,1,37.09,160ZM41,155.21a3.7,3.7,0,0,0-5.16,5.15l-2.91,2.91a7.77,7.77,0,0,1,11-11Z" style="fill:#e6e6e6"/><path d="M151.78,127a.05.05,0,0,1,0-.09l0,0a.44.44,0,0,0,0-.62.54.54,0,0,0-.76,0l-7.59,7.59-7.6,7.6a.54.54,0,0,0,0,.76.44.44,0,0,0,.62,0l0,0a.05.05,0,0,1,.09,0l1.25,4.74,28.55,28.54,4.19.74,7.62-7.63,7.63-7.63-.73-4.18-28.55-28.55Zm18.62,33.85a10,10,0,0,1-13.59.55l3.74-3.74a4.75,4.75,0,0,0,6.63-6.63l3.78-3.77A10,10,0,0,1,170.4,160.82Zm-9.34-4.8a3.23,3.23,0,1,1,4.58,0A3.24,3.24,0,0,1,161.06,156Zm5-6.13a4.76,4.76,0,0,0-6.63,6.64l-3.75,3.74a10,10,0,1,1,14.15-14.15Z" style="fill:#e6e6e6"/><path d="M394.78,127a.05.05,0,0,1,0-.09l0,0a.44.44,0,0,0,0-.62.54.54,0,0,0-.76,0l-7.59,7.59-7.6,7.6a.54.54,0,0,0,0,.76.44.44,0,0,0,.62,0l0,0a.05.05,0,0,1,.09,0l1.25,4.74,28.55,28.54,4.19.74,7.62-7.63,7.63-7.63-.73-4.18-28.55-28.55Zm18.62,33.85a10,10,0,0,1-13.59.55l3.74-3.74a4.75,4.75,0,0,0,6.63-6.63l3.78-3.77A10,10,0,0,1,413.4,160.82Zm-9.34-4.8a3.23,3.23,0,1,1,4.58,0A3.24,3.24,0,0,1,404.06,156Zm5-6.13a4.76,4.76,0,0,0-6.63,6.64l-3.75,3.74a10,10,0,1,1,14.15-14.15Z" style="fill:#e6e6e6"/><path d="M282.73,147.68l-1.13-1.13a4.23,4.23,0,0,0-.61.51,6.33,6.33,0,0,0-.49.56l1.14,1.14a3.33,3.33,0,0,1,.48-.6A3.07,3.07,0,0,1,282.73,147.68Z" style="fill:#e6e6e6"/><path d="M287,153a3.33,3.33,0,0,1-.6.48l1.15,1.15a5.36,5.36,0,0,0,1.08-1.1l-1.15-1.14A3.07,3.07,0,0,1,287,153Z" style="fill:#e6e6e6"/><path d="M292.58,157.53l3.47,3.46c1.81-1.81,3.56-3.52,5.24-5.3a1.16,1.16,0,0,0-.06-1.11c-1.48-2-2.94-4.12-4.57-6.05q-1.4-1.65-2.88-3.2A10.61,10.61,0,0,1,292.58,157.53Z" style="fill:#e6e6e6"/><path d="M281.6,146.55l1.13,1.13a3.43,3.43,0,0,1,4.73,4.73l1.15,1.14a5,5,0,0,0,0-5.86l3.77-3.77c-.39-.39-.78-.78-1.19-1.16l-3.75,3.76A5,5,0,0,0,281.6,146.55Z" style="fill:#e6e6e6"/><path d="M288.75,140.56a70.54,70.54,0,0,0-7.7-5.77,1,1,0,0,0-1.49.2c-.77.85-1.62,1.64-2.44,2.45l-2.31,2.32L277,142A10.6,10.6,0,0,1,288.75,140.56Z" style="fill:#e6e6e6"/><path d="M287.43,154.72l.1-.07-1.15-1.15a3.44,3.44,0,0,1-4.74-4.74l-1.14-1.14a5,5,0,0,0-.08,5.93l-3.53,3.53c.38.4.76.8,1.15,1.19l3.55-3.55A5,5,0,0,0,287.43,154.72Z" style="fill:#e6e6e6"/><path d="M275.94,143.06l-2.19-2.18-5.38,5.38c.2.34.37.67.58,1,1.4,1.88,2.73,3.81,4.21,5.63l.93,1.11A10.62,10.62,0,0,1,275.94,143.06Z" style="fill:#e6e6e6"/><path d="M280.11,160.28a74,74,0,0,0,8.64,7,1.08,1.08,0,0,0,1,0c1.74-1.66,3.43-3.39,5.2-5.16l-3.47-3.47A10.62,10.62,0,0,1,280.11,160.28Z" style="fill:#e6e6e6"/><path d="M288.32,168.74a68.3,68.3,0,0,1-20.94-21.55c-1.25,1.25-2.37,2.44-3.57,3.54a1.18,1.18,0,0,0-.25,1.63,41.25,41.25,0,0,0,6.22,9.74,40.14,40.14,0,0,0,13.77,10.39,1.12,1.12,0,0,0,1,0C285.8,171.3,287,170.05,288.32,168.74Z" style="fill:#e6e6e6"/><path d="M286.33,129.65c-.38-.17-1.05-.28-1.27-.07-1.3,1.16-2.5,2.43-3.84,3.78a62.34,62.34,0,0,1,21.52,21C304,153.1,305,152,306.13,151a1.12,1.12,0,0,0,.26-1.54,41.85,41.85,0,0,0-7.34-10.71A40.71,40.71,0,0,0,286.33,129.65Z" style="fill:#e6e6e6"/><path d="M297.76,162.91l3.26,3.25c1.37-1.37,2.73-2.72,4.08-4.1a.71.71,0,0,0,.2-.57c-.69-1.32-1.41-2.62-2.15-4Z" style="fill:#e6e6e6"/><path d="M295.22,171.24a.84.84,0,0,0,.77-.09c1.38-1.33,2.73-2.69,4.09-4.05l-3.27-3.27-5.3,5.3C292.79,169.87,294,170.58,295.22,171.24Z" style="fill:#e6e6e6"/><path d="M274.7,131.29a.85.85,0,0,0-.76.13c-1.31,1.26-2.58,2.55-3.86,3.83l2.92,2.91,5.14-5.13C276.93,132.41,275.83,131.82,274.7,131.29Z" style="fill:#e6e6e6"/><path d="M271.71,139.5a.85.85,0,0,0,0-.82c-.77-.84-1.6-1.63-2.48-2.51L265,140.38c.67,1.25,1.33,2.47,2.06,3.81C268.7,142.55,270.23,141,271.71,139.5Z" style="fill:#e6e6e6"/><path d="M290.28,170.32c-1.17,1.1-2.29,2.25-3.6,3.56,1.71.5,3.16,1,4.63,1.32a1.07,1.07,0,0,0,.87-.24c.9-.82,1.74-1.71,2.7-2.67-1.39-.73-2.6-1.38-3.82-2A.85.85,0,0,0,290.28,170.32Z" style="fill:#e6e6e6"/><path d="M304.42,156.12a.92.92,0,0,0-.12.85c.58,1.28,1.23,2.53,1.94,4,1-1,1.86-1.83,2.69-2.72a1,1,0,0,0,.24-.77c-.41-1.53-.87-3-1.37-4.74C306.55,154,305.46,155,304.42,156.12Z" style="fill:#e6e6e6"/><path d="M264,147.25c.7-.71,1.82-1.36,2-2.18s-.7-1.79-1.12-2.69c-.17-.37-.36-.73-.62-1.27-1.05,1-2,2-2.93,2.95-.16.16-.35.46-.3.64.34,1.39.74,2.77,1.19,4.37C262.92,148.34,263.46,147.8,264,147.25Z" style="fill:#e6e6e6"/><path d="M279.38,131.77c1.15-1.08,2.26-2.22,3.57-3.54-1.51-.43-2.75-.8-4-1.13a1,1,0,0,0-.8.12c-1,1-2,2-3.11,3.07,1.26.59,2.36,1.13,3.48,1.6A1,1,0,0,0,279.38,131.77Z" style="fill:#e6e6e6"/><path d="M32.59,257.93a8.35,8.35,0,0,1-3.36-1.87c-2.93-2.31-5.74-4.75-8.63-7.1-1.34-1.08-3-1.85-4.06-3.19a7.1,7.1,0,0,0-2.91-2.21c-.24-.11-.46-.26-.72-.4l.76-1.13c-1.75-1.41-1.77-1.41-3.42.23l-3.43,3.43c-1.69,1.69-1.69,1.7-.38,3.54l1.21-.78c.37.78.66,1.47,1,2.13a4.5,4.5,0,0,0,.77,1,23.32,23.32,0,0,1,2.09,2c2.57,3.28,4.84,6.83,7.68,9.85A13.14,13.14,0,0,1,23,270.23a15.58,15.58,0,0,0,4.61,8.31Q39,290,50.43,301.39l.35.32c1,.85,1.62.79,2.7-.29L65.4,289.5c1.72-1.71,1.75-2.14.29-3.72-.26-.29-.54-.57-.82-.84-6.58-6.58-13.23-13.1-19.72-19.77C41.68,261.6,37.75,258.91,32.59,257.93ZM48.86,284.2a7.78,7.78,0,0,1-10.57.43l2.91-2.91a3.7,3.7,0,0,0,5.16-5.15l2.93-2.94A7.78,7.78,0,0,1,48.86,284.2Zm-7.27-3.73a2.52,2.52,0,1,1,3.56,0A2.52,2.52,0,0,1,41.59,280.47Zm3.91-4.76a3.7,3.7,0,0,0-5.16,5.15l-2.91,2.91a7.77,7.77,0,0,1,11-11Z" style="fill:#e6e6e6"/><path d="M145.28,247.47a.05.05,0,0,1,0-.09l0,0a.44.44,0,0,0,0-.62.54.54,0,0,0-.76,0l-7.59,7.59-7.6,7.6a.54.54,0,0,0,0,.76.44.44,0,0,0,.62,0l0,0a.05.05,0,0,1,.09,0l1.25,4.74L159.85,296l4.19.74,7.62-7.63,7.63-7.63-.73-4.18L150,248.72Zm18.62,33.85a10,10,0,0,1-13.59.55l3.74-3.74a4.75,4.75,0,0,0,6.63-6.63l3.78-3.77A10,10,0,0,1,163.9,281.32Zm-9.34-4.8a3.23,3.23,0,1,1,4.58,0A3.24,3.24,0,0,1,154.56,276.52Zm5-6.13A4.76,4.76,0,0,0,153,277l-3.75,3.74a10,10,0,1,1,14.15-14.15Z" style="fill:#e6e6e6"/><path d="M388.28,247.47a.05.05,0,0,1,0-.09l0,0a.44.44,0,0,0,0-.62.54.54,0,0,0-.76,0l-7.59,7.59-7.6,7.6a.54.54,0,0,0,0,.76.44.44,0,0,0,.62,0l0,0a.05.05,0,0,1,.09,0l1.25,4.74L402.85,296l4.19.74,7.62-7.63,7.63-7.63-.73-4.18L393,248.72Zm18.62,33.85a10,10,0,0,1-13.59.55l3.74-3.74a4.75,4.75,0,0,0,6.63-6.63l3.78-3.77A10,10,0,0,1,406.9,281.32Zm-9.34-4.8a3.23,3.23,0,1,1,4.58,0A3.24,3.24,0,0,1,397.56,276.52Zm5-6.13A4.76,4.76,0,0,0,396,277l-3.75,3.74a10,10,0,1,1,14.15-14.15Z" style="fill:#e6e6e6"/><path d="M276.23,268.18l-1.13-1.13a4.23,4.23,0,0,0-.61.51,6.33,6.33,0,0,0-.49.56l1.14,1.14a3.33,3.33,0,0,1,.48-.6A3.07,3.07,0,0,1,276.23,268.18Z" style="fill:#e6e6e6"/><path d="M280.48,273.52a3.33,3.33,0,0,1-.6.48l1.15,1.15a5.36,5.36,0,0,0,1.08-1.1L281,272.91A3.07,3.07,0,0,1,280.48,273.52Z" style="fill:#e6e6e6"/><path d="M286.08,278l3.47,3.46c1.81-1.81,3.56-3.52,5.24-5.3a1.16,1.16,0,0,0-.06-1.11c-1.48-2-2.94-4.12-4.57-6.05q-1.4-1.65-2.88-3.2A10.61,10.61,0,0,1,286.08,278Z" style="fill:#e6e6e6"/><path d="M275.1,267.05l1.13,1.13a3.43,3.43,0,0,1,4.73,4.73l1.15,1.14a5,5,0,0,0,0-5.86l3.77-3.77c-.39-.39-.78-.78-1.19-1.16L281,267A5,5,0,0,0,275.1,267.05Z" style="fill:#e6e6e6"/><path d="M282.25,261.06a70.54,70.54,0,0,0-7.7-5.77,1,1,0,0,0-1.49.2c-.77.85-1.62,1.64-2.44,2.45l-2.31,2.32,2.22,2.22A10.6,10.6,0,0,1,282.25,261.06Z" style="fill:#e6e6e6"/><path d="M280.93,275.22l.1-.07L279.88,274a3.44,3.44,0,0,1-4.74-4.74L274,268.12a5,5,0,0,0-.08,5.93l-3.53,3.53c.38.4.76.8,1.15,1.19l3.55-3.55A5,5,0,0,0,280.93,275.22Z" style="fill:#e6e6e6"/><path d="M269.44,263.56l-2.19-2.18-5.38,5.38c.2.34.37.67.58,1,1.4,1.88,2.73,3.81,4.21,5.63l.93,1.11A10.62,10.62,0,0,1,269.44,263.56Z" style="fill:#e6e6e6"/><path d="M273.61,280.78a74,74,0,0,0,8.64,7,1.08,1.08,0,0,0,1,0c1.74-1.66,3.43-3.39,5.2-5.16L285,279.12A10.62,10.62,0,0,1,273.61,280.78Z" style="fill:#e6e6e6"/><path d="M281.82,289.24a68.3,68.3,0,0,1-20.94-21.55c-1.25,1.25-2.37,2.44-3.57,3.54a1.18,1.18,0,0,0-.25,1.63,41.25,41.25,0,0,0,6.22,9.74A40.14,40.14,0,0,0,277.05,293a1.12,1.12,0,0,0,1,0C279.3,291.8,280.51,290.55,281.82,289.24Z" style="fill:#e6e6e6"/><path d="M279.83,250.15c-.38-.17-1.05-.28-1.27-.07-1.3,1.16-2.5,2.43-3.84,3.78a62.34,62.34,0,0,1,21.52,21c1.23-1.23,2.28-2.33,3.39-3.36a1.12,1.12,0,0,0,.26-1.54,41.85,41.85,0,0,0-7.34-10.71A40.71,40.71,0,0,0,279.83,250.15Z" style="fill:#e6e6e6"/><path d="M291.26,283.41l3.26,3.25c1.37-1.37,2.73-2.72,4.08-4.1a.71.71,0,0,0,.2-.57c-.69-1.32-1.41-2.62-2.15-4Z" style="fill:#e6e6e6"/><path d="M288.72,291.74a.84.84,0,0,0,.77-.09c1.38-1.33,2.73-2.69,4.09-4l-3.27-3.27-5.3,5.3C286.29,290.37,287.49,291.08,288.72,291.74Z" style="fill:#e6e6e6"/><path d="M268.2,251.79a.85.85,0,0,0-.76.13c-1.31,1.26-2.58,2.55-3.86,3.83l2.92,2.91,5.14-5.13C270.43,252.91,269.33,252.32,268.2,251.79Z" style="fill:#e6e6e6"/><path d="M265.21,260a.85.85,0,0,0,0-.82c-.77-.84-1.6-1.63-2.48-2.51l-4.21,4.21c.67,1.25,1.33,2.47,2.06,3.81C262.2,263.05,263.73,261.54,265.21,260Z" style="fill:#e6e6e6"/><path d="M283.78,290.82c-1.17,1.1-2.29,2.25-3.6,3.56,1.71.5,3.16.95,4.63,1.32a1.07,1.07,0,0,0,.87-.24c.9-.82,1.74-1.71,2.7-2.67-1.39-.73-2.6-1.38-3.82-2A.85.85,0,0,0,283.78,290.82Z" style="fill:#e6e6e6"/><path d="M297.92,276.62a.92.92,0,0,0-.12.85c.58,1.28,1.23,2.53,1.94,4,1-1,1.86-1.83,2.69-2.72a1,1,0,0,0,.24-.77c-.41-1.53-.87-3-1.37-4.74C300.05,274.46,299,275.51,297.92,276.62Z" style="fill:#e6e6e6"/><path d="M257.5,267.75c.7-.71,1.82-1.36,2-2.18s-.7-1.79-1.12-2.69c-.17-.37-.36-.73-.62-1.27-1.05,1.05-2,2-2.93,2.95-.16.16-.35.46-.3.64.34,1.39.74,2.77,1.19,4.37Z" style="fill:#e6e6e6"/><path d="M272.88,252.27c1.15-1.08,2.26-2.22,3.57-3.54-1.51-.43-2.75-.8-4-1.13a1,1,0,0,0-.8.12c-1,1-2,2-3.11,3.07,1.26.59,2.36,1.13,3.48,1.6A1,1,0,0,0,272.88,252.27Z" style="fill:#e6e6e6"/><path d="M453.67,321.43a8.48,8.48,0,0,1-3.36-1.87c-2.92-2.31-5.74-4.75-8.63-7.1-1.34-1.08-3-1.85-4.05-3.19a7.19,7.19,0,0,0-2.92-2.21c-.24-.11-.46-.26-.72-.4l.77-1.13c-1.75-1.41-1.78-1.41-3.42.23l-3.44,3.43c-1.69,1.69-1.69,1.7-.38,3.54l1.21-.78c.37.78.67,1.47,1,2.13a4.54,4.54,0,0,0,.78,1,24.75,24.75,0,0,1,2.09,2c2.56,3.28,4.83,6.83,7.67,9.85a13.14,13.14,0,0,1,3.81,6.79,15.64,15.64,0,0,0,4.61,8.31q11.4,11.44,22.81,22.85c.11.11.22.22.34.32,1.05.85,1.62.79,2.71-.29L486.48,353c1.72-1.71,1.76-2.14.3-3.72-.27-.29-.55-.57-.83-.84-6.58-6.58-13.22-13.1-19.72-19.77C462.76,325.1,458.84,322.41,453.67,321.43Zm16.27,26.27a7.76,7.76,0,0,1-10.56.43l2.91-2.91a3.69,3.69,0,0,0,5.15-5.15l2.93-2.94A7.77,7.77,0,0,1,469.94,347.7ZM462.68,344a2.51,2.51,0,1,1,3.56,0A2.51,2.51,0,0,1,462.68,344Zm3.9-4.76a3.7,3.7,0,0,0-5.15,5.15l-2.91,2.91a7.77,7.77,0,0,1,11-11Z" style="fill:#e6e6e6"/><path d="M88.36,311a.06.06,0,0,1,0-.09l0,0a.44.44,0,0,0,0-.62.54.54,0,0,0-.76,0L80,317.83l-7.59,7.6a.54.54,0,0,0,0,.76.43.43,0,0,0,.61,0l0,0a.05.05,0,0,1,.09,0l1.26,4.74,28.55,28.54,4.18.74,7.63-7.63,7.63-7.63-.74-4.18L93.09,312.22ZM107,344.82a10,10,0,0,1-13.6.55l3.75-3.74a4.76,4.76,0,0,0,6.63-6.63l3.77-3.77A10,10,0,0,1,107,344.82ZM97.64,340a3.23,3.23,0,1,1,4.58,0A3.23,3.23,0,0,1,97.64,340Zm5-6.13A4.76,4.76,0,0,0,96,340.53l-3.74,3.74a10,10,0,0,1,14.15-14.15Z" style="fill:#e6e6e6"/><path d="M331.36,311a.06.06,0,0,1,0-.09l0,0a.44.44,0,0,0,0-.62.54.54,0,0,0-.76,0L323,317.83l-7.59,7.6a.54.54,0,0,0,0,.76.43.43,0,0,0,.61,0l0,0a.05.05,0,0,1,.09,0l1.26,4.74,28.55,28.54,4.18.74,7.63-7.63,7.63-7.63-.74-4.18-28.55-28.55ZM350,344.82a10,10,0,0,1-13.6.55l3.75-3.74a4.76,4.76,0,0,0,6.63-6.63l3.77-3.77A10,10,0,0,1,350,344.82Zm-9.35-4.8a3.23,3.23,0,1,1,4.58,0A3.23,3.23,0,0,1,340.64,340Zm5-6.13a4.76,4.76,0,0,0-6.63,6.64l-3.74,3.74a10,10,0,0,1,14.15-14.15Z" style="fill:#e6e6e6"/><path d="M219.31,331.68l-1.13-1.13a4.85,4.85,0,0,0-.61.51,6.33,6.33,0,0,0-.49.56l1.14,1.14a4.51,4.51,0,0,1,.48-.6A3.38,3.38,0,0,1,219.31,331.68Z" style="fill:#e6e6e6"/><path d="M223.56,337a2.75,2.75,0,0,1-.6.48l1.15,1.15a4.89,4.89,0,0,0,1.08-1.1l-1.14-1.14A3.54,3.54,0,0,1,223.56,337Z" style="fill:#e6e6e6"/><path d="M229.16,341.53l3.47,3.46c1.81-1.81,3.56-3.52,5.25-5.3a1.19,1.19,0,0,0-.06-1.11c-1.49-2-2.95-4.12-4.58-6.05q-1.4-1.65-2.88-3.2A10.61,10.61,0,0,1,229.16,341.53Z" style="fill:#e6e6e6"/><path d="M218.18,330.55l1.13,1.13a3.44,3.44,0,0,1,4.74,4.73l1.14,1.14a5,5,0,0,0,0-5.86l3.77-3.77-1.19-1.16L224,330.52A5,5,0,0,0,218.18,330.55Z" style="fill:#e6e6e6"/><path d="M225.33,324.56a71.4,71.4,0,0,0-7.69-5.77,1,1,0,0,0-1.5.2c-.77.85-1.62,1.64-2.43,2.45l-2.32,2.32,2.22,2.22A10.6,10.6,0,0,1,225.33,324.56Z" style="fill:#e6e6e6"/><path d="M224,338.72l.1-.07L223,337.5a3.44,3.44,0,0,1-4.74-4.74l-1.14-1.14a5,5,0,0,0-.08,5.93l-3.53,3.53,1.15,1.19,3.55-3.55A5,5,0,0,0,224,338.72Z" style="fill:#e6e6e6"/><path d="M212.52,327.06l-2.18-2.18L205,330.26a9.8,9.8,0,0,0,.59,1c1.39,1.88,2.73,3.81,4.21,5.63q.45.56.93,1.11A10.61,10.61,0,0,1,212.52,327.06Z" style="fill:#e6e6e6"/><path d="M216.69,344.28a74.84,74.84,0,0,0,8.64,7,1.08,1.08,0,0,0,1,0c1.75-1.66,3.44-3.39,5.21-5.16l-3.48-3.47A10.61,10.61,0,0,1,216.69,344.28Z" style="fill:#e6e6e6"/><path d="M224.91,352.74A68.22,68.22,0,0,1,204,331.19c-1.24,1.25-2.36,2.44-3.57,3.54a1.19,1.19,0,0,0-.25,1.63,41.57,41.57,0,0,0,6.22,9.74,40.14,40.14,0,0,0,13.77,10.39,1.12,1.12,0,0,0,1,0C222.38,355.3,223.59,354.05,224.91,352.74Z" style="fill:#e6e6e6"/><path d="M222.91,313.65c-.37-.17-1-.28-1.27-.07-1.29,1.16-2.5,2.43-3.84,3.78a62.37,62.37,0,0,1,21.53,21c1.22-1.23,2.27-2.33,3.38-3.36a1.11,1.11,0,0,0,.27-1.54,42.14,42.14,0,0,0-7.35-10.71A40.6,40.6,0,0,0,222.91,313.65Z" style="fill:#e6e6e6"/><path d="M234.35,346.91l3.25,3.25c1.37-1.37,2.74-2.72,4.08-4.1.13-.13.27-.44.2-.57-.68-1.32-1.41-2.62-2.15-4Z" style="fill:#e6e6e6"/><path d="M231.81,355.24a.84.84,0,0,0,.77-.09c1.38-1.33,2.72-2.69,4.08-4l-3.26-3.27-5.31,5.3C229.37,353.87,230.57,354.58,231.81,355.24Z" style="fill:#e6e6e6"/><path d="M211.28,315.29a.86.86,0,0,0-.76.13c-1.31,1.26-2.58,2.55-3.86,3.83l2.92,2.91,5.14-5.13C213.51,316.41,212.41,315.82,211.28,315.29Z" style="fill:#e6e6e6"/><path d="M208.3,323.5a.83.83,0,0,0,0-.82c-.77-.84-1.6-1.63-2.47-2.51l-4.22,4.21c.67,1.25,1.33,2.47,2.06,3.81C205.28,326.55,206.81,325,208.3,323.5Z" style="fill:#e6e6e6"/><path d="M226.86,354.32c-1.17,1.1-2.29,2.25-3.6,3.56,1.72.5,3.17.95,4.63,1.32a1.1,1.1,0,0,0,.88-.24c.89-.82,1.74-1.71,2.7-2.67-1.4-.73-2.6-1.38-3.83-2A.85.85,0,0,0,226.86,354.32Z" style="fill:#e6e6e6"/><path d="M241,340.12a1,1,0,0,0-.12.85c.58,1.28,1.23,2.53,1.94,4,1-1,1.86-1.83,2.69-2.72a1,1,0,0,0,.24-.77c-.4-1.53-.87-3-1.37-4.74C243.13,338,242,339,241,340.12Z" style="fill:#e6e6e6"/><path d="M200.58,331.25c.7-.71,1.82-1.36,2-2.18s-.71-1.79-1.13-2.69c-.17-.37-.35-.73-.62-1.27-1.05,1.05-2,2-2.93,2.95a.91.91,0,0,0-.3.64c.35,1.39.75,2.77,1.19,4.37C199.5,332.34,200.05,331.8,200.58,331.25Z" style="fill:#e6e6e6"/><path d="M216,315.77c1.16-1.08,2.26-2.22,3.58-3.54-1.51-.43-2.75-.8-4-1.13a1,1,0,0,0-.8.12c-1,1-2,2-3.11,3.07,1.27.59,2.36,1.13,3.48,1.6A1,1,0,0,0,216,315.77Z" style="fill:#e6e6e6"/><path d="M453.67,443.43a8.48,8.48,0,0,1-3.36-1.87c-2.92-2.31-5.74-4.75-8.63-7.1-1.34-1.08-3-1.85-4.05-3.19a7.19,7.19,0,0,0-2.92-2.21c-.24-.11-.46-.26-.72-.4l.77-1.13c-1.75-1.41-1.78-1.41-3.42.23l-3.44,3.43c-1.69,1.69-1.69,1.7-.38,3.54l1.21-.78c.37.78.67,1.47,1,2.13a4.54,4.54,0,0,0,.78,1,24.75,24.75,0,0,1,2.09,2c2.56,3.28,4.83,6.83,7.67,9.85a13.14,13.14,0,0,1,3.81,6.79,15.64,15.64,0,0,0,4.61,8.31q11.4,11.44,22.81,22.85c.11.11.22.22.34.32,1.05.85,1.62.79,2.71-.29L486.48,475c1.72-1.71,1.76-2.14.3-3.72-.27-.29-.55-.57-.83-.84-6.58-6.58-13.22-13.1-19.72-19.77C462.76,447.1,458.84,444.41,453.67,443.43Zm16.27,26.27a7.76,7.76,0,0,1-10.56.43l2.91-2.91a3.69,3.69,0,0,0,5.15-5.15l2.93-2.94A7.77,7.77,0,0,1,469.94,469.7ZM462.68,466a2.51,2.51,0,1,1,3.56,0A2.51,2.51,0,0,1,462.68,466Zm3.9-4.76a3.7,3.7,0,0,0-5.15,5.15l-2.91,2.91a7.77,7.77,0,0,1,11-11Z" style="fill:#e6e6e6"/><path d="M88.36,433a.06.06,0,0,1,0-.09l0,0a.44.44,0,0,0,0-.62.54.54,0,0,0-.76,0L80,439.83l-7.59,7.6a.54.54,0,0,0,0,.76.43.43,0,0,0,.61,0l0,0a.05.05,0,0,1,.09,0l1.26,4.74,28.55,28.54,4.18.74,7.63-7.63,7.63-7.63-.74-4.18L93.09,434.22ZM107,466.82a10,10,0,0,1-13.6.55l3.75-3.74a4.76,4.76,0,0,0,6.63-6.63l3.77-3.77A10,10,0,0,1,107,466.82ZM97.64,462a3.23,3.23,0,1,1,4.58,0A3.23,3.23,0,0,1,97.64,462Zm5-6.13A4.76,4.76,0,0,0,96,462.53l-3.74,3.74a10,10,0,0,1,14.15-14.15Z" style="fill:#e6e6e6"/><path d="M331.36,433a.06.06,0,0,1,0-.09l0,0a.44.44,0,0,0,0-.62.54.54,0,0,0-.76,0L323,439.83l-7.59,7.6a.54.54,0,0,0,0,.76.43.43,0,0,0,.61,0l0,0a.05.05,0,0,1,.09,0l1.26,4.74,28.55,28.54,4.18.74,7.63-7.63,7.63-7.63-.74-4.18-28.55-28.55ZM350,466.82a10,10,0,0,1-13.6.55l3.75-3.74a4.76,4.76,0,0,0,6.63-6.63l3.77-3.77A10,10,0,0,1,350,466.82Zm-9.35-4.8a3.23,3.23,0,1,1,4.58,0A3.23,3.23,0,0,1,340.64,462Zm5-6.13a4.76,4.76,0,0,0-6.63,6.64l-3.74,3.74a10,10,0,0,1,14.15-14.15Z" style="fill:#e6e6e6"/><path d="M219.31,453.68l-1.13-1.13a4.85,4.85,0,0,0-.61.51,6.33,6.33,0,0,0-.49.56l1.14,1.14a4.51,4.51,0,0,1,.48-.6A3.38,3.38,0,0,1,219.31,453.68Z" style="fill:#e6e6e6"/><path d="M223.56,459a2.75,2.75,0,0,1-.6.48l1.15,1.15a4.89,4.89,0,0,0,1.08-1.1l-1.14-1.14A3.54,3.54,0,0,1,223.56,459Z" style="fill:#e6e6e6"/><path d="M229.16,463.53l3.47,3.46c1.81-1.81,3.56-3.52,5.25-5.3a1.19,1.19,0,0,0-.06-1.11c-1.49-2-2.95-4.12-4.58-6.05q-1.4-1.65-2.88-3.2A10.61,10.61,0,0,1,229.16,463.53Z" style="fill:#e6e6e6"/><path d="M218.18,452.55l1.13,1.13a3.44,3.44,0,0,1,4.74,4.73l1.14,1.14a5,5,0,0,0,0-5.86l3.77-3.77-1.19-1.16L224,452.52A5,5,0,0,0,218.18,452.55Z" style="fill:#e6e6e6"/><path d="M225.33,446.56a71.4,71.4,0,0,0-7.69-5.77,1,1,0,0,0-1.5.2c-.77.85-1.62,1.64-2.43,2.45l-2.32,2.32,2.22,2.22A10.6,10.6,0,0,1,225.33,446.56Z" style="fill:#e6e6e6"/><path d="M224,460.72l.1-.07L223,459.5a3.44,3.44,0,0,1-4.74-4.74l-1.14-1.14a5,5,0,0,0-.08,5.93l-3.53,3.53,1.15,1.19,3.55-3.55A5,5,0,0,0,224,460.72Z" style="fill:#e6e6e6"/><path d="M212.52,449.06l-2.18-2.18L205,452.26a9.8,9.8,0,0,0,.59,1c1.39,1.88,2.73,3.81,4.21,5.63q.45.56.93,1.11A10.61,10.61,0,0,1,212.52,449.06Z" style="fill:#e6e6e6"/><path d="M216.69,466.28a74.84,74.84,0,0,0,8.64,7,1.08,1.08,0,0,0,1,0c1.75-1.66,3.44-3.39,5.21-5.16l-3.48-3.47A10.61,10.61,0,0,1,216.69,466.28Z" style="fill:#e6e6e6"/><path d="M224.91,474.74A68.22,68.22,0,0,1,204,453.19c-1.24,1.25-2.36,2.44-3.57,3.54a1.19,1.19,0,0,0-.25,1.63,41.57,41.57,0,0,0,6.22,9.74,40.14,40.14,0,0,0,13.77,10.39,1.12,1.12,0,0,0,1,0C222.38,477.3,223.59,476.05,224.91,474.74Z" style="fill:#e6e6e6"/><path d="M222.91,435.65c-.37-.17-1-.28-1.27-.07-1.29,1.16-2.5,2.43-3.84,3.78a62.37,62.37,0,0,1,21.53,21c1.22-1.23,2.27-2.33,3.38-3.36a1.11,1.11,0,0,0,.27-1.54,42.14,42.14,0,0,0-7.35-10.71A40.6,40.6,0,0,0,222.91,435.65Z" style="fill:#e6e6e6"/><path d="M234.35,468.91l3.25,3.25c1.37-1.37,2.74-2.72,4.08-4.1.13-.13.27-.44.2-.57-.68-1.32-1.41-2.62-2.15-4Z" style="fill:#e6e6e6"/><path d="M231.81,477.24a.84.84,0,0,0,.77-.09c1.38-1.33,2.72-2.69,4.08-4l-3.26-3.27-5.31,5.3C229.37,475.87,230.57,476.58,231.81,477.24Z" style="fill:#e6e6e6"/><path d="M211.28,437.29a.86.86,0,0,0-.76.13c-1.31,1.26-2.58,2.55-3.86,3.83l2.92,2.91,5.14-5.13C213.51,438.41,212.41,437.82,211.28,437.29Z" style="fill:#e6e6e6"/><path d="M208.3,445.5a.83.83,0,0,0,0-.82c-.77-.84-1.6-1.63-2.47-2.51l-4.22,4.21c.67,1.25,1.33,2.47,2.06,3.81C205.28,448.55,206.81,447,208.3,445.5Z" style="fill:#e6e6e6"/><path d="M226.86,476.32c-1.17,1.1-2.29,2.25-3.6,3.56,1.72.5,3.17.95,4.63,1.32a1.1,1.1,0,0,0,.88-.24c.89-.82,1.74-1.71,2.7-2.67-1.4-.73-2.6-1.38-3.83-2A.85.85,0,0,0,226.86,476.32Z" style="fill:#e6e6e6"/><path d="M241,462.12a1,1,0,0,0-.12.85c.58,1.28,1.23,2.53,1.94,4,1-1,1.86-1.83,2.69-2.72a1,1,0,0,0,.24-.77c-.4-1.53-.87-3-1.37-4.74C243.13,460,242,461,241,462.12Z" style="fill:#e6e6e6"/><path d="M200.58,453.25c.7-.71,1.82-1.36,2-2.18s-.71-1.79-1.13-2.69c-.17-.37-.35-.73-.62-1.27-1.05,1.05-2,2-2.93,2.95a.91.91,0,0,0-.3.64c.35,1.39.75,2.77,1.19,4.37C199.5,454.34,200.05,453.8,200.58,453.25Z" style="fill:#e6e6e6"/><path d="M216,437.77c1.16-1.08,2.26-2.22,3.58-3.54-1.51-.43-2.75-.8-4-1.13a1,1,0,0,0-.8.12c-1,1-2,2-3.11,3.07,1.27.59,2.36,1.13,3.48,1.6A1,1,0,0,0,216,437.77Z" style="fill:#e6e6e6"/><path d="M27.09,378.43a8.35,8.35,0,0,1-3.36-1.87c-2.93-2.31-5.74-4.75-8.63-7.1-1.34-1.08-3-1.85-4.06-3.19a7.1,7.1,0,0,0-2.91-2.21c-.24-.11-.46-.26-.72-.4l.76-1.13c-1.75-1.41-1.77-1.41-3.42.23-1.14,1.15-2.29,2.29-3.43,3.43-1.69,1.69-1.69,1.7-.38,3.54L2.15,369c.37.78.66,1.47,1,2.13a4.5,4.5,0,0,0,.77,1,23.32,23.32,0,0,1,2.09,2c2.57,3.28,4.84,6.83,7.68,9.85a13.14,13.14,0,0,1,3.81,6.79A15.58,15.58,0,0,0,22.13,399q11.39,11.44,22.8,22.85l.35.32c1,.85,1.62.79,2.7-.29L59.9,410c1.72-1.71,1.75-2.14.29-3.72-.26-.29-.54-.57-.82-.84-6.58-6.58-13.23-13.1-19.72-19.77C36.18,382.1,32.25,379.41,27.09,378.43ZM43.36,404.7a7.78,7.78,0,0,1-10.57.43l2.91-2.91a3.7,3.7,0,0,0,5.16-5.15l2.93-2.94A7.78,7.78,0,0,1,43.36,404.7ZM36.09,401a2.52,2.52,0,1,1,3.56,0A2.52,2.52,0,0,1,36.09,401ZM40,396.21a3.7,3.7,0,0,0-5.16,5.15l-2.91,2.91a7.77,7.77,0,0,1,11-11Z" style="fill:#e6e6e6"/><path d="M150.78,368a.05.05,0,0,1,0-.09l0,0a.44.44,0,0,0,0-.62.54.54,0,0,0-.76,0l-7.59,7.59-7.6,7.6a.54.54,0,0,0,0,.76.44.44,0,0,0,.62,0l0,0a.05.05,0,0,1,.09,0l1.25,4.74,28.55,28.54,4.19.74,7.62-7.63,7.63-7.63-.73-4.18-28.55-28.55Zm18.62,33.85a10,10,0,0,1-13.59.55l3.74-3.74a4.75,4.75,0,0,0,6.63-6.63l3.78-3.77A10,10,0,0,1,169.4,401.82Zm-9.34-4.8a3.23,3.23,0,1,1,4.58,0A3.24,3.24,0,0,1,160.06,397Zm5-6.13a4.76,4.76,0,0,0-6.63,6.64l-3.75,3.74a10,10,0,1,1,14.15-14.15Z" style="fill:#e6e6e6"/><path d="M393.78,368a.05.05,0,0,1,0-.09l0,0a.44.44,0,0,0,0-.62.54.54,0,0,0-.76,0l-7.59,7.59-7.6,7.6a.54.54,0,0,0,0,.76.44.44,0,0,0,.62,0l0,0a.05.05,0,0,1,.09,0l1.25,4.74,28.55,28.54,4.19.74,7.62-7.63,7.63-7.63-.73-4.18-28.55-28.55Zm18.62,33.85a10,10,0,0,1-13.59.55l3.74-3.74a4.75,4.75,0,0,0,6.63-6.63l3.78-3.77A10,10,0,0,1,412.4,401.82Zm-9.34-4.8a3.23,3.23,0,1,1,4.58,0A3.24,3.24,0,0,1,403.06,397Zm5-6.13a4.76,4.76,0,0,0-6.63,6.64l-3.75,3.74a10,10,0,1,1,14.15-14.15Z" style="fill:#e6e6e6"/><path d="M281.73,388.68l-1.13-1.13a4.23,4.23,0,0,0-.61.51,6.33,6.33,0,0,0-.49.56l1.14,1.14a3.33,3.33,0,0,1,.48-.6A3.07,3.07,0,0,1,281.73,388.68Z" style="fill:#e6e6e6"/><path d="M286,394a3.33,3.33,0,0,1-.6.48l1.15,1.15a5.36,5.36,0,0,0,1.08-1.1l-1.15-1.14A3.07,3.07,0,0,1,286,394Z" style="fill:#e6e6e6"/><path d="M291.58,398.53l3.47,3.46c1.81-1.81,3.56-3.52,5.24-5.3a1.16,1.16,0,0,0-.06-1.11c-1.48-2-2.94-4.12-4.57-6.05q-1.4-1.65-2.88-3.2A10.61,10.61,0,0,1,291.58,398.53Z" style="fill:#e6e6e6"/><path d="M280.6,387.55l1.13,1.13a3.43,3.43,0,0,1,4.73,4.73l1.15,1.14a5,5,0,0,0,0-5.86l3.77-3.77c-.39-.39-.78-.78-1.19-1.16l-3.75,3.76A5,5,0,0,0,280.6,387.55Z" style="fill:#e6e6e6"/><path d="M287.75,381.56a70.54,70.54,0,0,0-7.7-5.77,1,1,0,0,0-1.49.2c-.77.85-1.62,1.64-2.44,2.45l-2.31,2.32L276,383A10.6,10.6,0,0,1,287.75,381.56Z" style="fill:#e6e6e6"/><path d="M286.43,395.72l.1-.07-1.15-1.15a3.44,3.44,0,0,1-4.74-4.74l-1.14-1.14a5,5,0,0,0-.08,5.93l-3.53,3.53c.38.4.76.8,1.15,1.19l3.55-3.55A5,5,0,0,0,286.43,395.72Z" style="fill:#e6e6e6"/><path d="M274.94,384.06l-2.19-2.18-5.38,5.38c.2.34.37.67.58,1,1.4,1.88,2.73,3.81,4.21,5.63l.93,1.11A10.62,10.62,0,0,1,274.94,384.06Z" style="fill:#e6e6e6"/><path d="M279.11,401.28a74,74,0,0,0,8.64,7,1.08,1.08,0,0,0,1,0c1.74-1.66,3.43-3.39,5.2-5.16l-3.47-3.47A10.62,10.62,0,0,1,279.11,401.28Z" style="fill:#e6e6e6"/><path d="M287.32,409.74a68.3,68.3,0,0,1-20.94-21.55c-1.25,1.25-2.37,2.44-3.57,3.54a1.18,1.18,0,0,0-.25,1.63,41.25,41.25,0,0,0,6.22,9.74,40.14,40.14,0,0,0,13.77,10.39,1.12,1.12,0,0,0,1,0C284.8,412.3,286,411.05,287.32,409.74Z" style="fill:#e6e6e6"/><path d="M285.33,370.65c-.38-.17-1.05-.28-1.27-.07-1.3,1.16-2.5,2.43-3.84,3.78a62.34,62.34,0,0,1,21.52,21C303,394.1,304,393,305.13,392a1.12,1.12,0,0,0,.26-1.54,41.85,41.85,0,0,0-7.34-10.71A40.71,40.71,0,0,0,285.33,370.65Z" style="fill:#e6e6e6"/><path d="M296.76,403.91l3.26,3.25c1.37-1.37,2.73-2.72,4.08-4.1a.71.71,0,0,0,.2-.57c-.69-1.32-1.41-2.62-2.15-4Z" style="fill:#e6e6e6"/><path d="M294.22,412.24a.84.84,0,0,0,.77-.09c1.38-1.33,2.73-2.69,4.09-4l-3.27-3.27-5.3,5.3C291.79,410.87,293,411.58,294.22,412.24Z" style="fill:#e6e6e6"/><path d="M273.7,372.29a.85.85,0,0,0-.76.13c-1.31,1.26-2.58,2.55-3.86,3.83l2.92,2.91,5.14-5.13C275.93,373.41,274.83,372.82,273.7,372.29Z" style="fill:#e6e6e6"/><path d="M270.71,380.5a.85.85,0,0,0,0-.82c-.77-.84-1.6-1.63-2.48-2.51L264,381.38c.67,1.25,1.33,2.47,2.06,3.81C267.7,383.55,269.23,382,270.71,380.5Z" style="fill:#e6e6e6"/><path d="M289.28,411.32c-1.17,1.1-2.29,2.25-3.6,3.56,1.71.5,3.16.95,4.63,1.32a1.07,1.07,0,0,0,.87-.24c.9-.82,1.74-1.71,2.7-2.67-1.39-.73-2.6-1.38-3.82-2A.85.85,0,0,0,289.28,411.32Z" style="fill:#e6e6e6"/><path d="M303.42,397.12a.92.92,0,0,0-.12.85c.58,1.28,1.23,2.53,1.94,4,1-1,1.86-1.83,2.69-2.72a1,1,0,0,0,.24-.77c-.41-1.53-.87-3-1.37-4.74C305.55,395,304.46,396,303.42,397.12Z" style="fill:#e6e6e6"/><path d="M263,388.25c.7-.71,1.82-1.36,2-2.18s-.7-1.79-1.12-2.69c-.17-.37-.36-.73-.62-1.27-1.05,1.05-2,2-2.93,2.95-.16.16-.35.46-.3.64.34,1.39.74,2.77,1.19,4.37Z" style="fill:#e6e6e6"/><path d="M278.38,372.77c1.15-1.08,2.26-2.22,3.57-3.54-1.51-.43-2.75-.8-4-1.13a1,1,0,0,0-.8.12c-1,1-2,2-3.11,3.07,1.26.59,2.36,1.13,3.48,1.6A1,1,0,0,0,278.38,372.77Z" style="fill:#e6e6e6"/></g></g></svg>