<svg xmlns="http://www.w3.org/2000/svg" viewBox="0 0 88.81 165"><title>drunkemon-icon</title><g id="02334dae-8263-4155-ac59-7ace75b8278e" data-name="圖層 2"><g id="e070052c-429e-40cd-a049-d33422e46665" data-name="圖層 1"><path d="M44.41,58.35A33.59,33.59,0,0,0,10.82,91.94H28.6a16,16,0,0,1,31.48,0H78A33.59,33.59,0,0,0,44.41,58.35Z" style="fill:red"/><ellipse cx="44.47" cy="94.56" rx="10.86" ry="10.88" style="fill:#fff"/><path d="M41.67,110.26A16,16,0,0,1,28.6,97.18H10.82a33.7,33.7,0,0,0,67.18,0H60.08A16,16,0,0,1,41.67,110.26Z" style="fill:#fff"/><path d="M80.71,3.27h.09A1.47,1.47,0,0,0,82.27,1.8,1.81,1.81,0,0,0,80.46,0H8.35A1.81,1.81,0,0,0,6.54,1.8,1.47,1.47,0,0,0,8,3.27H8.1a.18.18,0,0,1,.15.28L0,17.76V153.31L8.18,165H80.63l8.18-11.69V17.76L80.56,3.55A.18.18,0,0,1,80.71,3.27ZM44.41,128.15a33.59,33.59,0,0,1-33.59-31H28.6a16,16,0,0,0,31.48,0H78A33.6,33.6,0,0,1,44.41,128.15ZM33.61,94.56a10.86,10.86,0,1,1,10.86,10.88A10.87,10.87,0,0,1,33.61,94.56Zm26.47-2.62a16,16,0,0,0-31.48,0H10.82a33.59,33.59,0,0,1,67.18,0Z" style="fill:#4d4d4d"/></g></g></svg>